<?xml version="1.0" encoding="UTF-8"?><svg id="a" xmlns="http://www.w3.org/2000/svg" viewBox="0 0 402.03 113.56"><path class="b" d="M61.59,82.93l-10.67,9.65c-4.88-3.18-9.31-9.19-9.31-15.55V24.37c0-4.2-4.31-8.06-8.17-10.67l-11.35,11.35v48.24c0,3.74,3.29,7.15,6.7,9.65l-9.53,9.65c-4.88-3.18-10.44-8.06-10.44-14.41V25.5c0-3.63-3.29-7.15-6.7-9.65L12.78,5.19c3.86,2.38,7.04,7.04,8.63,11.58L36.85,1.33s18.05,7.83,18.05,19.29v52.66c0,3.74,3.29,7.15,6.7,9.65Z"/><path class="b" d="M104.72,84.29l-8.51,8.62-8.51-8.62v-1.48l-10.1,10.1-11.12-11.24V48.2l22.13-22.25,11.12,11.24v42.11l4.99,4.99Zm-17.02-7.38V42.3l-4.77-4.77-7.49,7.6,3.06,3.18v28.37l4.77,4.65,4.43-4.43Z"/><path class="b" d="M147.39,84.29l-8.51,8.62-8.63-8.62V42.3l-4.65-4.77-4.43,4.43v37.34l4.99,4.99-8.51,8.62-8.51-8.62V21.42L129.23,1.21l10.21,10.33-8.51,8.63-7.38-7.38-2.38,2.27v21l10.1-10.1,11.12,11.24v42.11l4.99,4.99Z"/><path class="b" d="M225.65,94.73c0,11.58-18.05,18.16-18.05,18.16l-28.03-9.87v-8.06l18.73,6.58s14.19-6.36,14.19-13.96v-20.66l-14.75,14.75s-18.16-6.58-18.16-18.16V25.73c0-3.75-3.29-7.15-6.7-9.65l10.67-10.67c4.88,3.06,9.31,9.08,9.31,15.44V58.64c0,4.31,4.43,8.17,8.28,10.78l11.35-11.46V20.51c0-3.63-3.41-7.04-6.81-9.65l9.53-9.53c4.99,3.06,10.44,7.94,10.44,14.3V94.73Z"/><path class="b" d="M264.81,37.19v33.48l-22.13,22.24-11.12-11.24V48.2l22.13-22.25,11.12,11.24Zm-12.03,39.72V42.3l-4.77-4.77-7.49,7.6,3.06,3.18v28.37l4.77,4.65,4.43-4.43Z"/><path class="b" d="M289.37,57.11l4.31,4.31-4.31,4.31h-14.91l-4.31-4.31,4.31-4.31h14.91Z"/><path class="b" d="M339.04,84.29l-8.51,8.62-8.51-8.62v-1.48l-10.1,10.1-11.12-11.24V47.41l21.11-21.45V14.83l-4.99-5.11,8.62-8.51,8.51,8.51V79.3l4.99,4.99Zm-17.14-7.38V41.39l-4.65-4.77-7.49,7.61,3.06,3.18v29.28l4.77,4.65,4.31-4.43Z"/><path class="b" d="M364.01,84.29l-8.63,8.62-8.51-8.62V14.83l-4.99-5.11,8.51-8.51,8.62,8.51V79.3l4.99,4.99Z"/><path class="b" d="M400.89,37.19v5.9l-21.22,21.22v12.37l4.77,4.65,4.43-4.43v-8.74l12.03-12.03v14.53l-22.13,22.24-11.12-11.24V48.2l22.13-22.25,11.12,11.24Zm-12.03,12.14v-7.04l-4.77-4.77-7.49,7.6,3.06,3.18v10.21l9.19-9.19Z"/></svg>